<mxfile host="app.diagrams.net" modified="2023-12-28T17:52:59.880Z" agent="Mozilla/5.0 (Macintosh; Intel Mac OS X 10_15_7) AppleWebKit/537.36 (KHTML, like Gecko) Chrome/120.0.0.0 Safari/537.36" etag="FL-VFMnWzXHV9cUePoTL" version="22.1.15" type="google">
  <diagram name="Page-1" id="wHPyczmktxyYoFRpz2Um">
    <mxGraphModel dx="1462" dy="1025" grid="1" gridSize="10" guides="1" tooltips="1" connect="1" arrows="1" fold="1" page="1" pageScale="1" pageWidth="827" pageHeight="1169" math="0" shadow="0">
      <root>
        <mxCell id="0" />
        <mxCell id="1" parent="0" />
        <mxCell id="OPZGCtS2TfBDVceixeIc-27" style="edgeStyle=orthogonalEdgeStyle;rounded=0;orthogonalLoop=1;jettySize=auto;html=1;exitX=0;exitY=1;exitDx=0;exitDy=0;entryX=1;entryY=0;entryDx=0;entryDy=0;dashed=1;" parent="1" source="OPZGCtS2TfBDVceixeIc-1" target="OPZGCtS2TfBDVceixeIc-7" edge="1">
          <mxGeometry relative="1" as="geometry" />
        </mxCell>
        <mxCell id="OPZGCtS2TfBDVceixeIc-1" value="column_formatting.ipynb" style="rounded=1;whiteSpace=wrap;html=1;fillColor=#fad9d5;strokeColor=#ae4132;" parent="1" vertex="1">
          <mxGeometry x="392.5" y="200" width="145" height="80" as="geometry" />
        </mxCell>
        <mxCell id="OPZGCtS2TfBDVceixeIc-21" style="edgeStyle=orthogonalEdgeStyle;rounded=0;orthogonalLoop=1;jettySize=auto;html=1;exitX=1;exitY=0.5;exitDx=0;exitDy=0;" parent="1" source="OPZGCtS2TfBDVceixeIc-5" target="OPZGCtS2TfBDVceixeIc-15" edge="1">
          <mxGeometry relative="1" as="geometry" />
        </mxCell>
        <mxCell id="OPZGCtS2TfBDVceixeIc-5" value="db_utils.py" style="rounded=0;whiteSpace=wrap;html=1;fillColor=#d5e8d4;strokeColor=#82b366;" parent="1" vertex="1">
          <mxGeometry x="140" y="60" width="120" height="80" as="geometry" />
        </mxCell>
        <mxCell id="OPZGCtS2TfBDVceixeIc-20" style="edgeStyle=orthogonalEdgeStyle;rounded=0;orthogonalLoop=1;jettySize=auto;html=1;exitX=0.5;exitY=1;exitDx=0;exitDy=0;entryX=0.5;entryY=0;entryDx=0;entryDy=0;" parent="1" source="OPZGCtS2TfBDVceixeIc-6" target="OPZGCtS2TfBDVceixeIc-7" edge="1">
          <mxGeometry relative="1" as="geometry" />
        </mxCell>
        <mxCell id="OPZGCtS2TfBDVceixeIc-25" style="edgeStyle=orthogonalEdgeStyle;rounded=0;orthogonalLoop=1;jettySize=auto;html=1;exitX=1;exitY=0.5;exitDx=0;exitDy=0;entryX=0;entryY=0.5;entryDx=0;entryDy=0;" parent="1" source="OPZGCtS2TfBDVceixeIc-6" target="OPZGCtS2TfBDVceixeIc-1" edge="1">
          <mxGeometry relative="1" as="geometry">
            <Array as="points">
              <mxPoint x="350" y="240" />
              <mxPoint x="350" y="240" />
            </Array>
          </mxGeometry>
        </mxCell>
        <mxCell id="OPZGCtS2TfBDVceixeIc-6" value="load_data.py" style="rounded=0;whiteSpace=wrap;html=1;fillColor=#d5e8d4;strokeColor=#82b366;" parent="1" vertex="1">
          <mxGeometry x="140" y="200" width="120" height="80" as="geometry" />
        </mxCell>
        <mxCell id="OPZGCtS2TfBDVceixeIc-28" style="edgeStyle=orthogonalEdgeStyle;rounded=0;orthogonalLoop=1;jettySize=auto;html=1;exitX=1;exitY=0.25;exitDx=0;exitDy=0;" parent="1" source="OPZGCtS2TfBDVceixeIc-7" target="OPZGCtS2TfBDVceixeIc-26" edge="1">
          <mxGeometry relative="1" as="geometry">
            <Array as="points">
              <mxPoint x="360" y="360" />
              <mxPoint x="360" y="360" />
            </Array>
          </mxGeometry>
        </mxCell>
        <mxCell id="OPZGCtS2TfBDVceixeIc-48" style="edgeStyle=orthogonalEdgeStyle;rounded=0;orthogonalLoop=1;jettySize=auto;html=1;exitX=0.75;exitY=1;exitDx=0;exitDy=0;entryX=0.452;entryY=0.013;entryDx=0;entryDy=0;entryPerimeter=0;" parent="1" source="OPZGCtS2TfBDVceixeIc-7" target="OPZGCtS2TfBDVceixeIc-41" edge="1">
          <mxGeometry relative="1" as="geometry">
            <Array as="points">
              <mxPoint x="230" y="440" />
            </Array>
          </mxGeometry>
        </mxCell>
        <mxCell id="OPZGCtS2TfBDVceixeIc-50" style="edgeStyle=orthogonalEdgeStyle;rounded=0;orthogonalLoop=1;jettySize=auto;html=1;exitX=0.5;exitY=1;exitDx=0;exitDy=0;entryX=0.5;entryY=0;entryDx=0;entryDy=0;" parent="1" source="OPZGCtS2TfBDVceixeIc-7" target="OPZGCtS2TfBDVceixeIc-12" edge="1">
          <mxGeometry relative="1" as="geometry" />
        </mxCell>
        <mxCell id="OPZGCtS2TfBDVceixeIc-7" value="transformed_data.py" style="rounded=0;whiteSpace=wrap;html=1;fillColor=#d5e8d4;strokeColor=#82b366;" parent="1" vertex="1">
          <mxGeometry x="140" y="340" width="120" height="80" as="geometry" />
        </mxCell>
        <mxCell id="OPZGCtS2TfBDVceixeIc-70" style="edgeStyle=orthogonalEdgeStyle;rounded=0;orthogonalLoop=1;jettySize=auto;html=1;exitX=0.25;exitY=1;exitDx=0;exitDy=0;entryX=1;entryY=0.75;entryDx=0;entryDy=0;" parent="1" source="OPZGCtS2TfBDVceixeIc-8" target="OPZGCtS2TfBDVceixeIc-57" edge="1">
          <mxGeometry relative="1" as="geometry" />
        </mxCell>
        <mxCell id="OPZGCtS2TfBDVceixeIc-65" style="edgeStyle=orthogonalEdgeStyle;rounded=0;orthogonalLoop=1;jettySize=auto;html=1;exitX=0;exitY=0.75;exitDx=0;exitDy=0;entryX=1;entryY=0.25;entryDx=0;entryDy=0;" parent="1" source="OPZGCtS2TfBDVceixeIc-11" target="OPZGCtS2TfBDVceixeIc-40" edge="1">
          <mxGeometry relative="1" as="geometry" />
        </mxCell>
        <mxCell id="OPZGCtS2TfBDVceixeIc-69" style="edgeStyle=orthogonalEdgeStyle;rounded=0;orthogonalLoop=1;jettySize=auto;html=1;exitX=0.25;exitY=1;exitDx=0;exitDy=0;entryX=1;entryY=0.25;entryDx=0;entryDy=0;" parent="1" source="OPZGCtS2TfBDVceixeIc-11" target="OPZGCtS2TfBDVceixeIc-57" edge="1">
          <mxGeometry relative="1" as="geometry" />
        </mxCell>
        <mxCell id="OPZGCtS2TfBDVceixeIc-77" style="edgeStyle=orthogonalEdgeStyle;rounded=0;orthogonalLoop=1;jettySize=auto;html=1;exitX=0.5;exitY=1;exitDx=0;exitDy=0;entryX=1;entryY=0.25;entryDx=0;entryDy=0;" parent="1" source="OPZGCtS2TfBDVceixeIc-11" target="OPZGCtS2TfBDVceixeIc-67" edge="1">
          <mxGeometry relative="1" as="geometry" />
        </mxCell>
        <mxCell id="OPZGCtS2TfBDVceixeIc-83" style="edgeStyle=orthogonalEdgeStyle;rounded=0;orthogonalLoop=1;jettySize=auto;html=1;exitX=0.75;exitY=1;exitDx=0;exitDy=0;entryX=1;entryY=0.25;entryDx=0;entryDy=0;" parent="1" source="OPZGCtS2TfBDVceixeIc-11" target="OPZGCtS2TfBDVceixeIc-79" edge="1">
          <mxGeometry relative="1" as="geometry" />
        </mxCell>
        <mxCell id="OPZGCtS2TfBDVceixeIc-88" style="edgeStyle=orthogonalEdgeStyle;rounded=0;orthogonalLoop=1;jettySize=auto;html=1;exitX=1;exitY=1;exitDx=0;exitDy=0;entryX=1;entryY=0.25;entryDx=0;entryDy=0;" parent="1" source="OPZGCtS2TfBDVceixeIc-11" target="OPZGCtS2TfBDVceixeIc-81" edge="1">
          <mxGeometry relative="1" as="geometry" />
        </mxCell>
        <mxCell id="OPZGCtS2TfBDVceixeIc-11" value="plotter.py" style="rounded=0;whiteSpace=wrap;html=1;fillColor=#008a00;strokeColor=#005700;fontColor=#ffffff;" parent="1" vertex="1">
          <mxGeometry x="597" y="603" width="110" height="80" as="geometry" />
        </mxCell>
        <mxCell id="OPZGCtS2TfBDVceixeIc-58" style="edgeStyle=orthogonalEdgeStyle;rounded=0;orthogonalLoop=1;jettySize=auto;html=1;exitX=1;exitY=0.75;exitDx=0;exitDy=0;entryX=0;entryY=0.5;entryDx=0;entryDy=0;" parent="1" target="OPZGCtS2TfBDVceixeIc-57" edge="1">
          <mxGeometry relative="1" as="geometry">
            <mxPoint x="250.75" y="643" as="sourcePoint" />
            <Array as="points">
              <mxPoint x="350.75" y="643" />
              <mxPoint x="350.75" y="803" />
            </Array>
          </mxGeometry>
        </mxCell>
        <mxCell id="OPZGCtS2TfBDVceixeIc-74" style="edgeStyle=orthogonalEdgeStyle;rounded=0;orthogonalLoop=1;jettySize=auto;html=1;exitX=0.75;exitY=1;exitDx=0;exitDy=0;entryX=0;entryY=0.5;entryDx=0;entryDy=0;" parent="1" source="OPZGCtS2TfBDVceixeIc-12" target="OPZGCtS2TfBDVceixeIc-67" edge="1">
          <mxGeometry relative="1" as="geometry" />
        </mxCell>
        <mxCell id="OPZGCtS2TfBDVceixeIc-80" style="edgeStyle=orthogonalEdgeStyle;rounded=0;orthogonalLoop=1;jettySize=auto;html=1;exitX=0.5;exitY=1;exitDx=0;exitDy=0;entryX=0;entryY=0.5;entryDx=0;entryDy=0;" parent="1" source="OPZGCtS2TfBDVceixeIc-12" target="OPZGCtS2TfBDVceixeIc-79" edge="1">
          <mxGeometry relative="1" as="geometry" />
        </mxCell>
        <mxCell id="OPZGCtS2TfBDVceixeIc-82" style="edgeStyle=orthogonalEdgeStyle;rounded=0;orthogonalLoop=1;jettySize=auto;html=1;exitX=0.25;exitY=1;exitDx=0;exitDy=0;entryX=0;entryY=0.5;entryDx=0;entryDy=0;" parent="1" source="OPZGCtS2TfBDVceixeIc-12" target="OPZGCtS2TfBDVceixeIc-81" edge="1">
          <mxGeometry relative="1" as="geometry" />
        </mxCell>
        <mxCell id="OPZGCtS2TfBDVceixeIc-85" style="edgeStyle=orthogonalEdgeStyle;rounded=0;orthogonalLoop=1;jettySize=auto;html=1;exitX=1;exitY=0.25;exitDx=0;exitDy=0;entryX=0.5;entryY=0;entryDx=0;entryDy=0;" parent="1" source="OPZGCtS2TfBDVceixeIc-12" target="OPZGCtS2TfBDVceixeIc-40" edge="1">
          <mxGeometry relative="1" as="geometry" />
        </mxCell>
        <mxCell id="OPZGCtS2TfBDVceixeIc-91" style="edgeStyle=orthogonalEdgeStyle;rounded=0;orthogonalLoop=1;jettySize=auto;html=1;exitX=0;exitY=1;exitDx=0;exitDy=0;entryX=0.75;entryY=0;entryDx=0;entryDy=0;" parent="1" source="OPZGCtS2TfBDVceixeIc-12" target="OPZGCtS2TfBDVceixeIc-14" edge="1">
          <mxGeometry relative="1" as="geometry" />
        </mxCell>
        <mxCell id="OPZGCtS2TfBDVceixeIc-12" value="dataframetransform.py" style="rounded=0;whiteSpace=wrap;html=1;fillColor=#008a00;strokeColor=#005700;fontColor=#ffffff;" parent="1" vertex="1">
          <mxGeometry x="120.75" y="583" width="160" height="80" as="geometry" />
        </mxCell>
        <mxCell id="OPZGCtS2TfBDVceixeIc-13" value="review_data.ipynb" style="rounded=1;whiteSpace=wrap;html=1;fillColor=#bac8d3;strokeColor=#23445d;" parent="1" vertex="1">
          <mxGeometry x="437.5" y="60" width="120" height="80" as="geometry" />
        </mxCell>
        <mxCell id="OPZGCtS2TfBDVceixeIc-14" value="load_and_transform.py" style="rounded=0;html=1;align=center;whiteSpace=wrap;fillColor=#bac8d3;strokeColor=#23445d;" parent="1" vertex="1">
          <mxGeometry x="23" y="876.5" width="130" height="80" as="geometry" />
        </mxCell>
        <mxCell id="OPZGCtS2TfBDVceixeIc-23" style="edgeStyle=orthogonalEdgeStyle;rounded=0;orthogonalLoop=1;jettySize=auto;html=1;exitX=0.25;exitY=1;exitDx=0;exitDy=0;entryX=0.5;entryY=0;entryDx=0;entryDy=0;" parent="1" source="OPZGCtS2TfBDVceixeIc-15" target="OPZGCtS2TfBDVceixeIc-6" edge="1">
          <mxGeometry relative="1" as="geometry" />
        </mxCell>
        <mxCell id="OPZGCtS2TfBDVceixeIc-24" style="edgeStyle=orthogonalEdgeStyle;rounded=0;orthogonalLoop=1;jettySize=auto;html=1;exitX=1;exitY=0.5;exitDx=0;exitDy=0;entryX=0;entryY=0.5;entryDx=0;entryDy=0;" parent="1" target="OPZGCtS2TfBDVceixeIc-13" edge="1">
          <mxGeometry relative="1" as="geometry">
            <mxPoint x="370" y="100" as="sourcePoint" />
          </mxGeometry>
        </mxCell>
        <mxCell id="OPZGCtS2TfBDVceixeIc-15" value="loan_payments.csv" style="shape=parallelogram;perimeter=parallelogramPerimeter;whiteSpace=wrap;html=1;fixedSize=1;fillColor=#dae8fc;strokeColor=#6c8ebf;" parent="1" vertex="1">
          <mxGeometry x="280" y="60" width="140" height="80" as="geometry" />
        </mxCell>
        <mxCell id="OPZGCtS2TfBDVceixeIc-17" style="edgeStyle=orthogonalEdgeStyle;rounded=0;orthogonalLoop=1;jettySize=auto;html=1;exitX=1;exitY=0.5;exitDx=0;exitDy=0;entryX=0;entryY=0.5;entryDx=0;entryDy=0;" parent="1" target="OPZGCtS2TfBDVceixeIc-5" edge="1">
          <mxGeometry relative="1" as="geometry">
            <mxPoint x="100" y="100" as="sourcePoint" />
          </mxGeometry>
        </mxCell>
        <mxCell id="OPZGCtS2TfBDVceixeIc-16" value="credentials.yaml" style="shape=hexagon;perimeter=hexagonPerimeter2;whiteSpace=wrap;html=1;fixedSize=1;fillColor=#e1d5e7;strokeColor=#9673a6;" parent="1" vertex="1">
          <mxGeometry y="60" width="110" height="80" as="geometry" />
        </mxCell>
        <mxCell id="OPZGCtS2TfBDVceixeIc-26" value="dataframe_info_class.ipynb" style="rounded=1;whiteSpace=wrap;html=1;fillColor=#fad9d5;strokeColor=#ae4132;" parent="1" vertex="1">
          <mxGeometry x="380" y="340" width="167.5" height="80" as="geometry" />
        </mxCell>
        <mxCell id="OPZGCtS2TfBDVceixeIc-86" style="edgeStyle=orthogonalEdgeStyle;rounded=0;orthogonalLoop=1;jettySize=auto;html=1;exitX=0.25;exitY=0;exitDx=0;exitDy=0;entryX=1;entryY=0.5;entryDx=0;entryDy=0;dashed=1;" parent="1" source="OPZGCtS2TfBDVceixeIc-40" target="OPZGCtS2TfBDVceixeIc-12" edge="1">
          <mxGeometry relative="1" as="geometry" />
        </mxCell>
        <mxCell id="OPZGCtS2TfBDVceixeIc-40" value="skew_review.ipynb" style="rounded=1;whiteSpace=wrap;html=1;fillColor=#a20025;fontColor=#ffffff;strokeColor=#6F0000;" parent="1" vertex="1">
          <mxGeometry x="384.5" y="643" width="160" height="80" as="geometry" />
        </mxCell>
        <mxCell id="OPZGCtS2TfBDVceixeIc-61" style="edgeStyle=orthogonalEdgeStyle;rounded=0;orthogonalLoop=1;jettySize=auto;html=1;exitX=1;exitY=0.75;exitDx=0;exitDy=0;entryX=0.5;entryY=0;entryDx=0;entryDy=0;dashed=1;" parent="1" source="OPZGCtS2TfBDVceixeIc-41" target="OPZGCtS2TfBDVceixeIc-11" edge="1">
          <mxGeometry relative="1" as="geometry" />
        </mxCell>
        <mxCell id="OPZGCtS2TfBDVceixeIc-64" style="edgeStyle=orthogonalEdgeStyle;rounded=0;orthogonalLoop=1;jettySize=auto;html=1;exitX=0;exitY=0.5;exitDx=0;exitDy=0;entryX=0.75;entryY=0;entryDx=0;entryDy=0;dashed=1;" parent="1" source="OPZGCtS2TfBDVceixeIc-41" target="OPZGCtS2TfBDVceixeIc-12" edge="1">
          <mxGeometry relative="1" as="geometry" />
        </mxCell>
        <mxCell id="OPZGCtS2TfBDVceixeIc-41" value="missing_data_review.ipynb" style="rounded=1;whiteSpace=wrap;html=1;fillColor=#a20025;fontColor=#ffffff;strokeColor=#6F0000;" parent="1" vertex="1">
          <mxGeometry x="381.25" y="480" width="167.5" height="80" as="geometry" />
        </mxCell>
        <mxCell id="OPZGCtS2TfBDVceixeIc-75" style="edgeStyle=orthogonalEdgeStyle;rounded=0;orthogonalLoop=1;jettySize=auto;html=1;exitX=0;exitY=0.75;exitDx=0;exitDy=0;entryX=1;entryY=1;entryDx=0;entryDy=0;dashed=1;" parent="1" source="OPZGCtS2TfBDVceixeIc-57" target="OPZGCtS2TfBDVceixeIc-12" edge="1">
          <mxGeometry relative="1" as="geometry" />
        </mxCell>
        <mxCell id="OPZGCtS2TfBDVceixeIc-57" value="outlier_review.ipynb" style="rounded=1;whiteSpace=wrap;html=1;fillColor=#a20025;fontColor=#ffffff;strokeColor=#6F0000;" parent="1" vertex="1">
          <mxGeometry x="384.5" y="763" width="160" height="80" as="geometry" />
        </mxCell>
        <mxCell id="OPZGCtS2TfBDVceixeIc-67" value="eda_part_1.ipynb" style="rounded=1;whiteSpace=wrap;html=1;fillColor=#fad9d5;strokeColor=#ae4132;" parent="1" vertex="1">
          <mxGeometry x="385.62" y="890" width="156.25" height="53" as="geometry" />
        </mxCell>
        <mxCell id="OPZGCtS2TfBDVceixeIc-72" value="" style="edgeStyle=orthogonalEdgeStyle;rounded=0;orthogonalLoop=1;jettySize=auto;html=1;dashed=1;entryX=0.5;entryY=0;entryDx=0;entryDy=0;" parent="1" source="OPZGCtS2TfBDVceixeIc-26" target="OPZGCtS2TfBDVceixeIc-8" edge="1">
          <mxGeometry relative="1" as="geometry">
            <mxPoint x="548" y="380" as="sourcePoint" />
            <mxPoint x="762" y="520" as="targetPoint" />
            <Array as="points" />
          </mxGeometry>
        </mxCell>
        <mxCell id="OPZGCtS2TfBDVceixeIc-78" style="edgeStyle=orthogonalEdgeStyle;rounded=0;orthogonalLoop=1;jettySize=auto;html=1;exitX=0.5;exitY=1;exitDx=0;exitDy=0;entryX=1;entryY=0.75;entryDx=0;entryDy=0;" parent="1" source="OPZGCtS2TfBDVceixeIc-8" target="OPZGCtS2TfBDVceixeIc-67" edge="1">
          <mxGeometry relative="1" as="geometry" />
        </mxCell>
        <mxCell id="OPZGCtS2TfBDVceixeIc-87" style="edgeStyle=orthogonalEdgeStyle;rounded=0;orthogonalLoop=1;jettySize=auto;html=1;exitX=0.75;exitY=1;exitDx=0;exitDy=0;entryX=1;entryY=0.75;entryDx=0;entryDy=0;" parent="1" source="OPZGCtS2TfBDVceixeIc-8" target="OPZGCtS2TfBDVceixeIc-79" edge="1">
          <mxGeometry relative="1" as="geometry" />
        </mxCell>
        <mxCell id="OPZGCtS2TfBDVceixeIc-89" style="edgeStyle=orthogonalEdgeStyle;rounded=0;orthogonalLoop=1;jettySize=auto;html=1;exitX=1;exitY=1;exitDx=0;exitDy=0;entryX=1;entryY=0.75;entryDx=0;entryDy=0;" parent="1" source="OPZGCtS2TfBDVceixeIc-8" target="OPZGCtS2TfBDVceixeIc-81" edge="1">
          <mxGeometry relative="1" as="geometry" />
        </mxCell>
        <mxCell id="OPZGCtS2TfBDVceixeIc-93" style="edgeStyle=orthogonalEdgeStyle;rounded=0;orthogonalLoop=1;jettySize=auto;html=1;exitX=0;exitY=0.25;exitDx=0;exitDy=0;entryX=1;entryY=0.5;entryDx=0;entryDy=0;" parent="1" source="OPZGCtS2TfBDVceixeIc-8" target="OPZGCtS2TfBDVceixeIc-41" edge="1">
          <mxGeometry relative="1" as="geometry" />
        </mxCell>
        <mxCell id="OPZGCtS2TfBDVceixeIc-95" style="edgeStyle=orthogonalEdgeStyle;rounded=0;orthogonalLoop=1;jettySize=auto;html=1;exitX=0;exitY=1;exitDx=0;exitDy=0;entryX=0.75;entryY=0;entryDx=0;entryDy=0;" parent="1" source="OPZGCtS2TfBDVceixeIc-8" target="OPZGCtS2TfBDVceixeIc-40" edge="1">
          <mxGeometry relative="1" as="geometry">
            <Array as="points">
              <mxPoint x="505" y="580" />
            </Array>
          </mxGeometry>
        </mxCell>
        <mxCell id="OPZGCtS2TfBDVceixeIc-8" value="dataframeinfo.py" style="rounded=0;whiteSpace=wrap;html=1;fillColor=#008a00;strokeColor=#005700;fontColor=#ffffff;" parent="1" vertex="1">
          <mxGeometry x="707" y="500" width="110" height="80" as="geometry" />
        </mxCell>
        <mxCell id="OPZGCtS2TfBDVceixeIc-73" style="edgeStyle=orthogonalEdgeStyle;rounded=0;orthogonalLoop=1;jettySize=auto;html=1;exitX=1;exitY=0;exitDx=0;exitDy=0;entryX=-0.009;entryY=0.15;entryDx=0;entryDy=0;entryPerimeter=0;dashed=1;" parent="1" source="OPZGCtS2TfBDVceixeIc-40" target="OPZGCtS2TfBDVceixeIc-11" edge="1">
          <mxGeometry relative="1" as="geometry" />
        </mxCell>
        <mxCell id="OPZGCtS2TfBDVceixeIc-76" value="&lt;font style=&quot;font-size: 12px;&quot;&gt;Solid line arrows indicate imports/exports. Dashed line arrows indicate one file informing another. Not every &quot;inform&quot; relationship is shown.&lt;/font&gt;" style="text;html=1;strokeColor=none;fillColor=none;align=center;verticalAlign=middle;whiteSpace=wrap;rounded=0;" parent="1" vertex="1">
          <mxGeometry x="23" y="10" width="750" height="30" as="geometry" />
        </mxCell>
        <mxCell id="OPZGCtS2TfBDVceixeIc-79" value="analysis_and_visualisation_part_A.ipynb" style="rounded=1;whiteSpace=wrap;html=1;fillColor=#a20025;fontColor=#ffffff;strokeColor=#6F0000;" parent="1" vertex="1">
          <mxGeometry x="336.24" y="980" width="255" height="60" as="geometry" />
        </mxCell>
        <mxCell id="OPZGCtS2TfBDVceixeIc-81" value="analysis_and_visualisation_part_B.ipynb" style="rounded=1;whiteSpace=wrap;html=1;fillColor=#a20025;fontColor=#ffffff;strokeColor=#6F0000;" parent="1" vertex="1">
          <mxGeometry x="336.24" y="1060" width="255" height="60" as="geometry" />
        </mxCell>
      </root>
    </mxGraphModel>
  </diagram>
</mxfile>
